<svg width="47" height="67" viewBox="0 0 47 67" fill="none" xmlns="http://www.w3.org/2000/svg">
<path fill-rule="evenodd" clip-rule="evenodd" d="M10.4049 0.161103C7.86108 0.623844 5.63658 1.79918 3.7369 3.68436C0.53912 6.85775 -0.692676 11.2066 0.377435 15.5448C1.02021 18.1511 2.73786 20.7877 4.79367 22.3243C5.26539 22.677 5.65402 22.9968 5.65732 23.0354C5.66062 23.0739 5.48123 23.2122 5.25852 23.3428C4.60108 23.7282 3.2109 25.0849 2.51079 26.0243C1.14848 27.8526 0.339127 29.902 0.0818036 32.1743C-0.4125 36.5423 1.47912 40.8495 5.09935 43.5985L5.65811 44.0228L4.70306 44.7779C2.59229 46.4467 1.02642 48.8881 0.353657 51.5587C-0.025987 53.0656 -0.058086 55.9118 0.288799 57.2925C1.25165 61.1255 3.74496 64.1737 7.26612 65.823C9.23713 66.7461 10.3979 66.9992 12.6645 67C14.2054 67.0005 14.8091 66.9438 15.7525 66.7094C17.8581 66.1863 19.8907 65.0952 21.4422 63.655C23.6993 61.5597 25.097 58.8538 25.4641 55.8685C25.5496 55.1736 25.6094 52.2775 25.6095 48.8225C25.6098 45.596 25.6414 42.9563 25.6798 42.9563C25.7184 42.9563 26.0509 43.1925 26.419 43.4812C29.6869 46.0448 34.6584 46.7885 38.6572 45.3124C41.8452 44.1355 44.2742 41.9326 45.7434 38.886C46.6838 36.9358 46.9399 35.7819 46.9347 33.518C46.931 31.8735 46.8831 31.4458 46.5787 30.346C45.815 27.5863 44.1776 25.1718 41.8934 23.4374L41.3346 23.0131L42.2897 22.258C45.774 19.5032 47.5881 14.8013 46.8291 10.4923C45.9426 5.45917 42.3543 1.64476 37.202 0.258633C36.4563 0.0580675 35.1588 0.033554 23.8927 0.00746742C13.6913 -0.0162596 11.226 0.0117933 10.4049 0.161103ZM21.3828 12.4783V20.9335L16.4623 20.9315C11.0597 20.9294 10.5751 20.8779 9.01626 20.1396C5.70382 18.5707 3.72977 14.9918 4.21826 11.441C4.64758 8.31951 6.72862 5.71531 9.67172 4.61588C10.9891 4.1239 11.8168 4.05678 16.7925 4.03922L21.3828 4.02309V12.4783ZM36.5032 4.33417C38.9182 5.02277 40.9097 6.65037 41.9819 8.81162C42.5906 10.0389 42.8275 11.1158 42.8169 12.6094C42.8061 14.1596 42.4254 15.5206 41.63 16.8534C40.9432 18.0039 39.3582 19.4569 38.1382 20.0543C36.448 20.8818 36.0359 20.9294 30.5305 20.9315L25.6099 20.9335V12.4675V4.00146L30.6626 4.05547C34.9261 4.10096 35.8384 4.14448 36.5032 4.33417ZM21.3828 33.518V41.9076H16.3909C10.8578 41.9076 10.573 41.8754 8.89975 41.0596C6.71633 39.9952 5.03158 37.9533 4.39871 35.6049C4.09991 34.4961 4.09977 32.5402 4.39844 31.4319C5.05153 29.0089 6.77208 26.9546 9.03185 25.9003C10.5887 25.1738 10.8519 25.1463 16.3302 25.137L21.3828 25.1283V33.518ZM36.381 25.3301C38.8009 25.9498 40.838 27.5786 41.9625 29.7924C42.559 30.967 42.8149 32.0856 42.8149 33.518C42.8149 34.9504 42.559 36.0689 41.9625 37.2435C40.838 39.4573 38.8009 41.0861 36.381 41.7059C35.2111 42.0057 33.0397 41.9725 31.8167 41.6361C30.304 41.2202 29.3757 40.6645 28.111 39.418C26.373 37.705 25.6139 35.9111 25.6139 33.518C25.6139 31.1282 26.3725 29.336 28.1124 27.6156C29.356 26.3857 30.1888 25.8776 31.6863 25.4352C32.9183 25.0712 35.1733 25.0206 36.381 25.3301ZM21.3534 51.1166C21.3119 55.8711 21.2946 56.1747 21.0194 56.9828C20.2979 59.1019 18.6366 61.028 16.7308 61.9549C15.2945 62.6535 14.1895 62.9212 12.7305 62.9242C11.3155 62.9271 10.4119 62.7345 9.16394 62.1642C6.0688 60.7496 4.18154 57.8755 4.16939 54.5576C4.1641 53.0898 4.36066 52.2282 5.00701 50.8872C5.83803 49.1627 7.18792 47.7982 8.88707 46.965C10.5204 46.164 10.8609 46.1255 16.4035 46.1133L21.3972 46.1024L21.3534 51.1166Z" fill="#FDE6D7"/>
</svg>
