<svg width="64" height="67" viewBox="0 0 64 67" fill="none" xmlns="http://www.w3.org/2000/svg">
<path fill-rule="evenodd" clip-rule="evenodd" d="M0.110151 0.817818C1.59419 11.8351 7.64428 55.9032 7.67625 55.9291C7.70066 55.9489 13.1849 58.448 19.8631 61.4825L32.0053 67L44.1381 61.4838C50.8111 58.4499 56.2885 55.9532 56.3102 55.9355C56.332 55.9177 58.0478 43.4576 60.1233 28.246C62.1988 13.0346 63.9201 0.456277 63.9485 0.294415L64 0H31.9999H0L0.110151 0.817818ZM60.1208 3.50366C60.1208 4.07404 53.3268 53.5763 53.2381 53.6531C53.1833 53.7004 48.3811 55.8997 42.5666 58.5404L31.9947 63.3415L21.3586 58.498C10.8083 53.6934 10.7217 53.651 10.6262 53.2264C10.4878 52.6112 3.87069 4.00783 3.87069 3.60625V3.27127H31.9958C58.8542 3.27127 60.1208 3.28174 60.1208 3.50366ZM13.1678 11.8093C13.2001 11.8993 13.866 15.9916 14.6476 20.9034L16.0686 29.834H30.648C38.6666 29.834 45.2506 29.8782 45.2791 29.9322C45.3688 30.1012 43.6023 42.9154 43.473 43.035C43.2891 43.2051 32.1948 48.3276 32.0105 48.3276C31.8303 48.3276 20.7033 43.2092 20.5274 43.0452C20.4646 42.9869 20.2746 41.5125 20.1051 39.7687C19.9355 38.025 19.7676 36.5692 19.7321 36.5335C19.6612 36.4624 16.6395 36.7469 16.554 36.8326C16.4679 36.9189 17.3093 45.1929 17.4135 45.2846C17.5836 45.4345 31.8452 51.9914 32.0009 51.9914C32.1549 51.9914 46.4117 45.4317 46.5695 45.2882C46.6174 45.2446 47.1915 41.1461 47.8452 36.1803C48.499 31.2145 49.0629 27.0191 49.0984 26.8572L49.1629 26.5627H34.0212C25.6933 26.5627 18.8794 26.5385 18.8794 26.5091C18.8794 26.4456 17.2227 15.9636 17.1145 15.3423L17.0404 14.917H33.6213H50.202V13.2814V11.6457H31.6555C16.874 11.6457 13.1209 11.679 13.1678 11.8093Z" fill="#FDE6D7"/>
</svg>
