<svg width="67" height="66" viewBox="0 0 67 66" fill="none" xmlns="http://www.w3.org/2000/svg">
<path fill-rule="evenodd" clip-rule="evenodd" d="M1.77365 0.187638C1.11165 0.418373 0.332698 1.22956 0.149799 1.87884C-0.0527236 2.59734 -0.0485371 63.4036 0.154117 64.1225C0.343557 64.795 1.22233 65.6608 1.90487 65.8474C2.6485 66.0509 64.3508 66.0509 65.0944 65.8474C65.777 65.6608 66.6557 64.795 66.8452 64.1225C67.0516 63.3898 67.0516 2.59605 66.8452 1.86337C66.6557 1.19089 65.777 0.325048 65.0944 0.138397C64.7179 0.0354044 55.8545 -0.00326637 33.4342 0.000213992C6.93131 0.00446777 2.21912 0.0323107 1.77365 0.187638ZM64.2183 2.72663C64.4468 2.95182 64.4468 63.034 64.2183 63.2592C63.9897 63.4844 3.00959 63.4844 2.78103 63.2592C2.55247 63.034 2.55247 2.95182 2.78103 2.72663C3.00959 2.50144 63.9897 2.50144 64.2183 2.72663ZM23.4258 18.1722C23.0301 18.2341 22.4708 18.3337 22.1829 18.3938L21.6596 18.5029L21.6264 32.5153L21.593 46.5277H23.2291H24.8649V40.7271V34.9265H26.0837C27.588 34.9265 28.5654 34.7558 29.8364 34.2711C32.1363 33.3941 33.9386 31.3526 34.6274 28.8445C34.9499 27.6702 34.9585 24.4717 34.6422 23.3252C33.9145 20.6875 32.2956 19.0758 29.6402 18.3455C28.7371 18.0972 24.6381 17.9829 23.4258 18.1722ZM28.8429 21.0116C29.6906 21.324 30.6266 22.2435 31.067 23.1963C31.8785 24.9521 31.8119 27.796 30.918 29.5619C29.9669 31.4409 27.9741 32.4416 25.5742 32.2455L24.8649 32.1875V26.5343V20.881L25.1593 20.8191C25.3213 20.7851 25.5714 20.7293 25.7153 20.6951C26.2352 20.5716 28.1847 20.7688 28.8429 21.0116ZM41.4802 25.9128C37.6353 26.563 35.671 31.0255 37.7776 34.3244C38.2842 35.1175 39.4404 36.1822 40.8382 37.1424C42.206 38.082 43.1009 38.9598 43.3931 39.6488C43.7137 40.4049 43.7694 41.6275 43.5173 42.3753C43.2556 43.1517 42.5238 43.8667 41.7839 44.0693C40.6336 44.3839 38.8526 44.0988 37.7316 43.4202L37.3189 43.1705L36.9105 44.3657L36.502 45.5609L36.8524 45.8393C37.853 46.634 40.6424 47.0156 42.3817 46.5956C43.3767 46.3553 44.5527 45.7295 45.2499 45.0691C45.4884 44.8433 45.8857 44.2525 46.1329 43.7563C47.3625 41.2871 46.9049 38.4193 44.9644 36.4338C44.5952 36.0559 43.522 35.187 42.5797 34.5029C40.4329 32.9442 40.0317 32.4059 40.0211 31.0706C40.014 30.1599 40.241 29.5976 40.8259 29.0769C41.7731 28.2337 43.0846 28.1626 44.6066 28.8718L45.4141 29.248L45.5209 28.9614C45.5795 28.8037 45.7688 28.2801 45.9415 27.7979L46.2555 26.9211L45.9289 26.6777C45.0924 26.0544 42.8862 25.675 41.4802 25.9128Z" fill="#FDE6D7"/>
</svg>
