<svg width="128" height="128" viewBox="0 0 128 128" fill="none" xmlns="http://www.w3.org/2000/svg">
<circle cx="64" cy="64" r="64" fill="#292929"/>
<path fill-rule="evenodd" clip-rule="evenodd" d="M59.2516 0.0824193C58.8282 0.140878 57.385 0.313435 56.0444 0.465993C44.8848 1.73466 33.7395 6.38549 24.2287 13.7429C21.4146 15.9197 15.8407 21.4931 13.6505 24.3201C6.53459 33.5049 2.24563 43.5462 0.444714 55.2368C-0.148238 59.0871 -0.148238 68.978 0.444714 72.8284C3.31685 91.4745 13.0868 107.03 28.334 117.233C36.8067 122.903 45.497 126.163 56.1726 127.675C59.6385 128.166 69.0659 128.086 72.8502 127.533C82.4123 126.135 91.6001 122.632 99.406 117.409C115.23 106.819 124.96 91.1448 127.683 71.8528C128.106 68.8637 128.106 59.2015 127.683 56.2124C125.341 39.6236 117.66 25.4378 105.436 15.1277C96.2742 7.40083 84.847 2.27335 72.9785 0.56445C70.209 0.165749 60.9894 -0.158084 59.2516 0.0824193ZM104.391 25.9757C104.624 26.208 104.739 26.6157 104.663 26.9372C104.59 27.2444 100.955 44.2749 96.5857 64.7833C91.9024 86.7629 88.5068 102.156 88.3147 102.278C88.1351 102.391 87.9188 102.486 87.8336 102.489C87.7486 102.491 81.9179 98.4019 74.8764 93.4024L62.0739 84.3122L60.5345 85.8019C54.9952 91.1627 47.7397 97.8768 47.4895 97.8735C47.3261 97.8712 47.0495 97.7789 46.875 97.6681C46.7003 97.5571 44.376 91.1279 41.7096 83.3805L36.8618 69.2942L23.7007 65.2628C16.4618 63.0457 10.3825 61.0745 10.1906 60.8827C9.7159 60.4084 10.0135 59.7615 10.843 59.464C11.22 59.3289 19.6103 56.2547 29.4886 52.632C39.3668 49.0096 59.0527 41.8361 73.2351 36.6909C87.4174 31.5457 100.06 26.9477 101.33 26.4731C104.086 25.4437 103.89 25.4755 104.391 25.9757ZM85.1659 40.2597C84.4603 40.7028 74.4731 46.9348 62.972 54.1089C51.4709 61.2827 42.0129 67.1999 41.9544 67.2583C41.8959 67.3168 43.2191 71.8022 44.8948 77.2256C46.5702 82.6492 47.9965 87.0314 48.0643 86.9637C48.1725 86.8555 49.3356 76.3821 49.3628 75.2701C49.3687 75.0337 56.1411 68.816 64.4434 61.4245C84.194 43.8403 87.6922 40.6928 87.9301 40.2907C88.0555 40.0784 87.9442 39.8569 87.6263 39.6869C86.8937 39.2951 86.5887 39.3662 85.1659 40.2597Z" fill="white"/>
</svg>
