<svg width="67" height="66" viewBox="0 0 67 66" fill="none" xmlns="http://www.w3.org/2000/svg">
<g clip-path="url(#clip0_130_54)">
<path fill-rule="evenodd" clip-rule="evenodd" d="M30.1504 52.8532H35.0132V29.2209L30.1504 27.6241V52.8532Z" fill="#FDE6D7"/>
<path fill-rule="evenodd" clip-rule="evenodd" d="M44.414 18.7887C44.36 21.9822 43.3334 23.6322 41.172 23.6322C38.9567 23.6322 36.6874 22.4613 33.6616 21.0241C29.5551 19.1081 27.61 18.5758 25.0704 18.5758C20.91 18.5758 17.668 21.9822 17.8842 27.8371H21.5043C21.5584 24.1113 22.9092 22.4613 25.0704 22.4613C27.2317 22.4613 29.5011 23.579 32.3107 24.963C36.4713 26.8258 38.6326 27.6775 41.064 27.6775C44.7923 27.6775 48.2503 25.7081 47.9801 18.7887H44.414Z" fill="#FDE6D7"/>
<path fill-rule="evenodd" clip-rule="evenodd" d="M33.446 0C15.021 0 0 14.7968 0 32.9468C0 51.0968 15.021 65.8936 33.446 65.8936C51.871 65.8936 66.892 51.0968 66.892 32.9468C66.892 14.7968 51.925 0 33.446 0ZM33.446 63.525C16.2097 63.525 2.5125 49.9791 2.5125 32.9468C2.5125 15.9145 16.2097 2.475 33.446 2.475C50.6823 2.475 64.4875 15.9677 64.4875 32.9468C64.4875 49.9258 50.6823 63.525 33.446 63.525Z" fill="#FDE6D7"/>
</g>
<defs>
<clipPath id="clip0_130_54">
<rect width="67" height="66" fill="white"/>
</clipPath>
</defs>
</svg>
