<svg width="128" height="128" viewBox="0 0 128 128" fill="none" xmlns="http://www.w3.org/2000/svg">
<circle cx="64.125" cy="68.375" r="57.375" fill="#292929"/>
<path fill-rule="evenodd" clip-rule="evenodd" d="M59.3667 0.0413797C49.6895 0.983154 42.3923 3.07142 34.4778 7.16312C22.3954 13.4099 12.639 23.3502 6.60674 35.5603C4.2892 40.2514 3.19698 43.1267 1.9857 47.7272C0.458643 53.5255 0.0140335 57.0506 0.000249129 63.4656C-0.00651776 66.6593 0.125311 70.1258 0.30501 71.4743C1.67142 81.7287 4.89196 90.5661 10.2782 98.8398L12.0734 101.598L8.08543 113.354C5.89196 119.819 4.13206 125.144 4.17442 125.187C4.21702 125.229 9.70297 123.522 16.3656 121.394C23.0285 119.266 28.5688 117.524 28.6778 117.524C28.7869 117.524 29.8154 118.108 30.9635 118.82C32.1117 119.533 34.5172 120.816 36.3091 121.673C52.5131 129.417 71.0363 130.08 87.6282 123.509C106.427 116.065 120.867 99.7781 126.021 80.2051C127.599 74.21 128 70.9237 128 63.9661C128 57.0086 127.599 53.7223 126.021 47.7272C119.974 24.7655 101.544 6.91711 78.2889 1.50122C74.3814 0.591228 70.3158 0.130226 65.3817 0.0378759C62.6248 -0.0139304 59.9181 -0.0124288 59.3667 0.0413797ZM44.0813 29.7394C44.4963 29.9544 45.0778 30.5638 45.3738 31.0934C46.1209 32.4309 52.2138 47.085 52.3913 47.9715C52.6183 49.1055 51.5078 51.0333 49.0166 53.8304C46.4169 56.7488 45.8582 57.6858 46.0895 58.7382C46.5098 60.648 52.3061 68.3241 55.8772 71.6998C61.4188 76.938 69.795 81.9122 73.527 82.1809C75.4461 82.3194 76.1458 81.777 79.0811 77.8753C80.4127 76.1053 81.833 74.3267 82.2373 73.923C83.2039 72.9577 84.639 72.7532 86.2483 73.3511C88.3127 74.1184 100.932 80.2554 101.819 80.9231L102.667 81.562L102.527 84.2139C102.168 91.0218 99.7763 94.5569 93.4518 97.6305C87.4388 100.553 82.7323 100.473 73.5178 97.2924C61.1554 93.0255 54.5935 88.9498 45.7021 80.0151C41.253 75.5445 38.0913 71.7649 34.4751 66.594C28.5162 58.073 26.231 51.4933 26.9112 44.8153C27.4565 39.461 29.3302 35.5084 33.1144 31.7298C34.945 29.9016 37.3405 29.149 40.9457 29.2692C42.4753 29.32 43.5966 29.4882 44.0813 29.7394Z" fill="white"/>
</svg>
